<svg width="44" height="44" viewBox="0 0 44 44" fill="none" xmlns="http://www.w3.org/2000/svg">
<circle cx="22" cy="22" r="22" fill="white"/>
<g clip-path="url(#clip0_39_36)">
<path d="M30.364 22.707C30.5514 22.5195 30.6567 22.2652 30.6567 22C30.6567 21.7348 30.5514 21.4805 30.364 21.293L24.707 15.636C24.6147 15.5405 24.5044 15.4643 24.3824 15.4119C24.2604 15.3595 24.1291 15.3319 23.9964 15.3307C23.8636 15.3296 23.7319 15.3549 23.609 15.4052C23.4861 15.4555 23.3744 15.5297 23.2806 15.6236C23.1867 15.7175 23.1124 15.8291 23.0621 15.952C23.0118 16.0749 22.9865 16.2066 22.9877 16.3394C22.9889 16.4722 23.0164 16.6034 23.0689 16.7254C23.1213 16.8474 23.1974 16.9578 23.293 17.05L27.243 21H14C13.7347 21 13.4804 21.1054 13.2928 21.2929C13.1053 21.4804 13 21.7348 13 22C13 22.2652 13.1053 22.5196 13.2928 22.7071C13.4804 22.8946 13.7347 23 14 23H27.243L23.293 26.95C23.1108 27.1386 23.01 27.3912 23.0123 27.6534C23.0146 27.9156 23.1197 28.1664 23.3051 28.3518C23.4905 28.5372 23.7414 28.6424 24.0036 28.6447C24.2657 28.647 24.5183 28.5462 24.707 28.364L30.364 22.707Z" fill="#29282F"/>
</g>
<defs>
<clipPath id="clip0_39_36">
<rect width="24" height="24" fill="white" transform="matrix(0 1 -1 0 34 10)"/>
</clipPath>
</defs>
</svg>
