<svg width="24" height="24" viewBox="0 0 24 24" fill="none" xmlns="http://www.w3.org/2000/svg">
<g clip-path="url(#clip0_39_85)">
<path d="M20.5478 12.5477C20.7353 12.3602 20.8406 12.1059 20.8406 11.8407C20.8406 11.5755 20.7353 11.3212 20.5478 11.1337L14.8908 5.47669C14.7985 5.38118 14.6882 5.305 14.5662 5.25259C14.4442 5.20018 14.313 5.17259 14.1802 5.17144C14.0474 5.17029 13.9157 5.19559 13.7928 5.24587C13.6699 5.29615 13.5583 5.3704 13.4644 5.4643C13.3705 5.55819 13.2962 5.66984 13.246 5.79274C13.1957 5.91563 13.1704 6.04731 13.1715 6.18009C13.1727 6.31287 13.2003 6.44409 13.2527 6.56609C13.3051 6.6881 13.3813 6.79844 13.4768 6.89069L17.4268 10.8407H4.18379C3.91857 10.8407 3.66422 10.946 3.47668 11.1336C3.28915 11.3211 3.18379 11.5755 3.18379 11.8407C3.18379 12.1059 3.28915 12.3603 3.47668 12.5478C3.66422 12.7353 3.91857 12.8407 4.18379 12.8407H17.4268L13.4768 16.7907C13.2946 16.9793 13.1938 17.2319 13.1961 17.4941C13.1984 17.7563 13.3036 18.0071 13.489 18.1925C13.6744 18.3779 13.9252 18.4831 14.1874 18.4854C14.4496 18.4876 14.7022 18.3868 14.8908 18.2047L20.5478 12.5477Z" fill="white"/>
</g>
<defs>
<clipPath id="clip0_39_85">
<rect width="24" height="24" fill="white" transform="matrix(-1 0 0 -1 24 24)"/>
</clipPath>
</defs>
</svg>
