<svg width="156" height="19" viewBox="0 0 156 19" fill="none" xmlns="http://www.w3.org/2000/svg">
<path d="M0.368 0.144H18.824V4.2H5.936V6.84H18.512V10.92H5.936V18H0.368V0.144ZM26.2925 0.144V18H20.9405V0.144H26.2925ZM37.6297 7.728H37.6057C34.9177 7.728 33.7177 8.544 33.3097 9.912H41.9497C41.5897 8.544 40.3417 7.728 37.6297 7.728ZM47.2777 13.44V13.464C47.2777 15.216 46.1257 18.36 38.4217 18.36H37.0537C30.1657 18.36 27.9577 15.144 27.9577 11.76V11.232C27.9577 7.92 29.9257 4.728 36.9097 4.728H38.3737C45.9577 4.728 47.3497 8.544 47.3497 11.688V12.576H33.2137C33.5257 14.088 34.8217 15.096 37.7737 15.096H37.7977C41.3497 15.096 41.9257 13.752 41.9977 13.44H47.2777ZM52.5005 18H46.5485L53.2925 11.448L46.7645 5.088H53.0765L56.4605 8.472L59.8445 5.088H65.8445L59.3645 11.352L66.0605 18H60.0125L56.2205 14.304L52.5005 18Z" fill="#EF5C31"/>
<path d="M67.1649 0.144H85.6209V4.2H72.7329V6.84H85.3089V10.92H72.7329V18H67.1649V0.144ZM97.8476 18.36H96.1676C88.6796 18.36 86.8796 14.664 86.8796 11.688V11.256C86.8796 8.28 88.6556 4.728 96.1436 4.728H97.8476C105.72 4.728 107.088 8.328 107.088 11.256V11.688C107.088 14.664 105.816 18.36 97.8476 18.36ZM97.0076 14.88C100.656 14.88 101.664 13.056 101.664 11.544V11.424C101.664 9.816 100.632 8.16 97.0316 8.16H97.0076C93.3596 8.16 92.3516 9.792 92.3516 11.424V11.544C92.3516 13.056 93.3596 14.88 97.0076 14.88ZM114.089 11.328V18H108.737V5.088H114.041V7.368C114.497 6.648 116.057 4.8 119.273 4.8H119.537C123.281 4.8 124.793 7.224 124.793 10.56V11.304H119.633C119.633 9.648 118.913 8.208 116.897 8.208H116.873C115.073 8.208 114.089 9.672 114.089 11.328ZM131.738 18H126.386V5.088H131.69V7.32C132.29 6.72 134.09 4.8 137.834 4.8H138.002C140.762 4.8 142.37 5.928 143.162 7.368C144.122 6.408 146.21 4.8 149.666 4.8H149.858C154.154 4.8 155.81 7.416 155.81 9.84V18H150.41V11.616C150.41 9.72 149.594 8.4 147.482 8.4C145.178 8.4 143.786 9.888 143.786 11.904V18H138.386V11.616C138.386 9.72 137.546 8.4 135.434 8.4C133.13 8.4 131.738 9.888 131.738 11.904V18Z" fill="white"/>
</svg>
