<svg width="25" height="25" viewBox="0 0 25 25" fill="none" xmlns="http://www.w3.org/2000/svg">
<g clip-path="url(#clip0_39_335)">
<path fill-rule="evenodd" clip-rule="evenodd" d="M12.5 0C12.7762 0 13.0413 0.109749 13.2366 0.305099C13.4319 0.500449 13.5416 0.7654 13.5416 1.04166V11.4584H23.9584C24.2346 11.4584 24.4995 11.5681 24.6949 11.7634C24.8902 11.9587 25 12.2238 25 12.5C25 12.7762 24.8902 13.0413 24.6949 13.2366C24.4995 13.4319 24.2346 13.5416 23.9584 13.5416H13.5416V23.9584C13.5416 24.2346 13.4319 24.4995 13.2366 24.6949C13.0413 24.8902 12.7762 25 12.5 25C12.2238 25 11.9587 24.8902 11.7634 24.6949C11.5681 24.4995 11.4584 24.2346 11.4584 23.9584V13.5416H1.04166C0.7654 13.5416 0.500449 13.4319 0.305099 13.2366C0.109749 13.0413 0 12.7762 0 12.5C0 12.2238 0.109749 11.9587 0.305099 11.7634C0.500449 11.5681 0.7654 11.4584 1.04166 11.4584H11.4584V1.04166C11.4584 0.7654 11.5681 0.500449 11.7634 0.305099C11.9587 0.109749 12.2238 0 12.5 0Z" fill="#EF5C31"/>
</g>
<defs>
<clipPath id="clip0_39_335">
<rect width="25" height="25" fill="white"/>
</clipPath>
</defs>
</svg>
